<svg xmlns="http://www.w3.org/2000/svg" viewBox="0 0 470 100" width="470" height="100" role="img" aria-label="simplifai">
  <defs>
    <mask id="cutCoral"><rect width="100" height="100" fill="#fff"/><rect x="24" y="24" width="52" height="52" rx="19"/></mask>
    <mask id="cutPurple"><rect width="100" height="100" fill="#fff"/><rect x="41" y="41" width="52" height="52" rx="19"/></mask>
  </defs>
  <rect x="12" y="12" width="42" height="42" rx="14" fill="#ffc857" mask="url(#cutCoral)"/>
    <rect x="29" y="29" width="42" height="42" rx="14" fill="#ff7a59" mask="url(#cutPurple)"/>
    <rect x="46" y="46" width="42" height="42" rx="14" fill="#8a4fff"/>
  <g transform="translate(116.00,72.00) scale(0.06400,-0.06400)" fill="#1a1a2e"><path transform="translate(0.00,0)" d="M27 189H217Q221 162 242.0 147.0Q263 132 294 132Q318 132 332.0 142.0Q346 152 346 168Q346 189 323.0 199.0Q300 209 247 221Q187 233 147.0 248.0Q107 263 77.5 297.0Q48 331 48 389Q48 439 75.0 479.5Q102 520 154.5 544.0Q207 568 281 568Q391 568 454.0 514.0Q517 460 527 372H350Q345 399 326.5 413.5Q308 428 277 428Q253 428 240.5 419.0Q228 410 228 394Q228 374 251.0 363.5Q274 353 325 342Q386 329 426.5 313.0Q467 297 497.5 261.5Q528 226 528 165Q528 116 499.5 77.0Q471 38 418.5 15.5Q366 -7 295 -7Q219 -7 159.5 18.5Q100 44 65.5 88.5Q31 133 27 189Z"/> <path transform="translate(533.62,0)" d="M40 713Q40 757 71.5 786.0Q103 815 155 815Q206 815 237.5 786.0Q269 757 269 713Q269 670 237.5 641.5Q206 613 155 613Q103 613 71.5 641.5Q40 670 40 713ZM252 561V0H56V561Z"/> <path transform="translate(807.25,0)" d="M1016 327V0H820V301Q820 346 795.0 371.0Q770 396 727 396Q684 396 659.0 371.0Q634 346 634 301V0H438V301Q438 346 413.5 371.0Q389 396 346 396Q302 396 277.0 371.0Q252 346 252 301V0H56V561H252V487Q278 523 319.5 544.5Q361 566 415 566Q477 566 525.5 539.0Q574 512 602 463Q632 509 681.0 537.5Q730 566 789 566Q895 566 955.5 502.0Q1016 438 1016 327Z"/> <path transform="translate(1839.88,0)" d="M416 568Q483 568 537.5 533.0Q592 498 623.5 433.0Q655 368 655 281Q655 194 623.5 128.5Q592 63 537.5 28.0Q483 -7 416 -7Q359 -7 317.5 16.0Q276 39 252 78V-268H56V561H252V483Q275 522 317.0 545.0Q359 568 416 568ZM354 397Q311 397 281.5 366.0Q252 335 252 281Q252 226 281.5 195.0Q311 164 354 164Q397 164 426.5 195.5Q456 227 456 281Q456 336 426.5 366.5Q397 397 354 397Z"/> <path transform="translate(2485.50,0)" d="M252 740V0H56V740Z"/> <path transform="translate(2759.12,0)" d="M40 713Q40 757 71.5 786.0Q103 815 155 815Q206 815 237.5 786.0Q269 757 269 713Q269 670 237.5 641.5Q206 613 155 613Q103 613 71.5 641.5Q40 670 40 713ZM252 561V0H56V561Z"/> <path transform="translate(3032.75,0)" d="M359 398H271V0H74V398H13V561H74V566Q74 674 137.5 731.5Q201 789 320 789Q344 789 357 788V621Q349 622 335 622Q303 622 288.0 607.5Q273 593 271 561H359Z"/></g>
  <g transform="translate(116.00,72.00) scale(0.06400,-0.06400)" fill="#ff7a59"><path transform="translate(3371.38,0)" d="M263 568Q321 568 363.0 545.0Q405 522 428 483V561H624V0H428V78Q405 39 362.5 16.0Q320 -7 263 -7Q196 -7 141.5 28.0Q87 63 55.5 128.5Q24 194 24 281Q24 368 55.5 433.0Q87 498 141.5 533.0Q196 568 263 568ZM326 397Q282 397 253.0 366.5Q224 336 224 281Q224 227 253.0 195.5Q282 164 326 164Q369 164 398.5 195.0Q428 226 428 281Q428 335 398.5 366.0Q369 397 326 397Z"/> <path transform="translate(4017.00,0)" d="M40 713Q40 757 71.5 786.0Q103 815 155 815Q206 815 237.5 786.0Q269 757 269 713Q269 670 237.5 641.5Q206 613 155 613Q103 613 71.5 641.5Q40 670 40 713ZM252 561V0H56V561Z"/></g>
</svg>
